<svg width="171" height="36" viewBox="0 0 171 36" fill="none" xmlns="http://www.w3.org/2000/svg">
<g clip-path="url(#clip0_1_12)">
<rect width="171" height="36" fill="#090909"/>
<path d="M171 0H0V36H171V0Z" fill="#E3F4F4"/>
<path fill-rule="evenodd" clip-rule="evenodd" d="M27.8333 18C27.8333 25.0877 22.0877 30.8333 15 30.8333C7.91234 30.8333 2.16666 25.0877 2.16666 18C2.16666 10.9123 7.91234 5.16666 15 5.16666C22.0877 5.16666 27.8333 10.9123 27.8333 18ZM30 18C30 26.2843 23.2843 33 15 33C6.71573 33 0 26.2843 0 18C0 9.71573 6.71573 3 15 3C23.2843 3 30 9.71573 30 18ZM23.2759 11.2759C23.2759 12.1329 22.5812 12.8276 21.7242 12.8276C20.8672 12.8276 20.1725 12.1329 20.1725 11.2759C20.1725 10.4189 20.8672 9.72418 21.7242 9.72418C22.5812 9.72418 23.2759 10.4189 23.2759 11.2759ZM10.4879 19.209C11.1556 21.7009 13.717 23.1797 16.2089 22.512C18.7008 21.8443 20.1796 19.2829 19.5119 16.791C18.8442 14.2991 16.2828 12.8203 13.7909 13.488C11.299 14.1557 9.82015 16.7171 10.4879 19.209ZM8.39503 19.7698C9.37244 23.4175 13.1219 25.5823 16.7696 24.6049C20.4174 23.6274 22.5821 19.878 21.6047 16.2302C20.6273 12.5825 16.8779 10.4177 13.2301 11.3952C9.58236 12.3726 7.41762 16.122 8.39503 19.7698Z" fill="url(#paint0_linear_1_12)"/>
<path d="M46.7365 28.3956C45.2097 28.3956 43.8619 28.1223 42.6932 27.5757C41.5245 27.029 40.6103 26.2468 39.9506 25.2289C39.2908 24.211 38.9609 22.9857 38.9609 21.5531V20.7614H42.6367V21.5531C42.6367 22.7407 43.0043 23.636 43.7394 24.2392C44.4746 24.8236 45.4736 25.1158 46.7365 25.1158C48.0183 25.1158 48.9703 24.8613 49.5923 24.3523C50.2332 23.8434 50.5537 23.1931 50.5537 22.4014C50.5537 21.8547 50.3934 21.4117 50.073 21.0725C49.7714 20.7332 49.319 20.4598 48.7158 20.2525C48.1314 20.0263 47.4151 19.8189 46.5669 19.6304L45.9166 19.4891C44.5594 19.1875 43.3907 18.8105 42.4105 18.3581C41.4491 17.8868 40.7046 17.2742 40.1768 16.5202C39.6678 15.7662 39.4133 14.786 39.4133 13.5796C39.4133 12.3732 39.6961 11.3459 40.2616 10.4976C40.8459 9.63054 41.6565 8.97079 42.6932 8.5184C43.7488 8.04715 44.9835 7.81152 46.3972 7.81152C47.811 7.81152 49.0645 8.05657 50.1578 8.54667C51.27 9.01792 52.137 9.73422 52.7591 10.6956C53.4 11.6381 53.7204 12.8256 53.7204 14.2582V15.1064H50.0447V14.2582C50.0447 13.5042 49.8939 12.901 49.5923 12.4486C49.3096 11.9774 48.8949 11.6381 48.3482 11.4307C47.8016 11.2045 47.1512 11.0914 46.3972 11.0914C45.2662 11.0914 44.4274 11.3082 43.8808 11.7417C43.353 12.1564 43.0891 12.7314 43.0891 13.4665C43.0891 13.9566 43.2116 14.3713 43.4567 14.7106C43.7206 15.0499 44.107 15.3326 44.6159 15.5588C45.1249 15.785 45.7752 15.983 46.5669 16.1526L47.2172 16.294C48.631 16.5956 49.8562 16.982 50.893 17.4533C51.9485 17.9245 52.7685 18.5466 53.3529 19.3194C53.9372 20.0923 54.2294 21.0819 54.2294 22.2883C54.2294 23.4947 53.9184 24.5597 53.2963 25.4833C52.6931 26.3881 51.826 27.1044 50.695 27.6322C49.5829 28.1412 48.2634 28.3956 46.7365 28.3956ZM56.2778 27.9998V13.9755H59.7839V15.8133H60.2928C60.519 15.3232 60.9431 14.8614 61.5652 14.4278C62.1872 13.9755 63.1297 13.7493 64.3927 13.7493C65.486 13.7493 66.4379 14.0037 67.2484 14.5127C68.0778 15.0028 68.7187 15.6908 69.1711 16.5767C69.6235 17.4438 69.8497 18.4617 69.8497 19.6304V27.9998H66.2871V19.9132C66.2871 18.8576 66.0232 18.0659 65.4954 17.5381C64.9864 17.0103 64.2513 16.7464 63.2899 16.7464C62.1967 16.7464 61.3484 17.114 60.7452 17.8491C60.142 18.5654 59.8404 19.5739 59.8404 20.8745V27.9998H56.2778ZM77.2072 28.3956C76.2081 28.3956 75.3127 28.226 74.521 27.8867C73.7294 27.5286 73.0979 27.0196 72.6266 26.3599C72.1742 25.6813 71.948 24.8613 71.948 23.8999C71.948 22.9386 72.1742 22.1375 72.6266 21.4966C73.0979 20.8368 73.7388 20.3467 74.5493 20.0263C75.3787 19.687 76.3212 19.5173 77.3768 19.5173H81.2222V18.7256C81.2222 18.0659 81.0148 17.5287 80.6002 17.114C80.1855 16.6804 79.5257 16.4636 78.6209 16.4636C77.735 16.4636 77.0752 16.671 76.6417 17.0857C76.2081 17.4815 75.9254 17.9999 75.7934 18.6408L72.5135 17.5381C72.7397 16.8218 73.0979 16.1715 73.588 15.5871C74.0969 14.9839 74.7661 14.5032 75.5955 14.1451C76.4437 13.7681 77.4711 13.5796 78.6775 13.5796C80.5248 13.5796 81.9856 14.0414 83.0601 14.9651C84.1345 15.8887 84.6717 17.2271 84.6717 18.9801V24.211C84.6717 24.7765 84.9356 25.0592 85.4634 25.0592H86.5944V27.9998H84.2193C83.5219 27.9998 82.947 27.8302 82.4946 27.4909C82.0422 27.1516 81.816 26.6992 81.816 26.1337V26.1054H81.2787C81.2033 26.3316 81.0337 26.6332 80.7698 27.0102C80.5059 27.3683 80.0912 27.6888 79.5257 27.9715C78.9602 28.2543 78.1874 28.3956 77.2072 28.3956ZM77.8292 25.5116C78.8283 25.5116 79.6388 25.2383 80.2609 24.6916C80.9017 24.1261 81.2222 23.3816 81.2222 22.4579V22.1752H77.6313C76.9715 22.1752 76.4532 22.3165 76.0762 22.5993C75.6992 22.882 75.5107 23.2779 75.5107 23.7868C75.5107 24.2958 75.7086 24.7105 76.1044 25.0309C76.5003 25.3514 77.0752 25.5116 77.8292 25.5116ZM88.351 33.6548V13.9755H91.8571V15.6719H92.366C92.6865 15.1253 93.186 14.6446 93.8646 14.2299C94.5432 13.7964 95.514 13.5796 96.7769 13.5796C97.9079 13.5796 98.9541 13.8624 99.9154 14.4278C100.877 14.9745 101.65 15.785 102.234 16.8595C102.819 17.9339 103.111 19.2346 103.111 20.7614V21.2138C103.111 22.7407 102.819 24.0413 102.234 25.1158C101.65 26.1902 100.877 27.0102 99.9154 27.5757C98.9541 28.1223 97.9079 28.3956 96.7769 28.3956C95.9287 28.3956 95.2124 28.292 94.628 28.0846C94.0625 27.8961 93.6007 27.6511 93.2426 27.3495C92.9033 27.029 92.6299 26.7086 92.4226 26.3881H91.9136V33.6548H88.351ZM95.7025 25.2854C96.8146 25.2854 97.7288 24.9367 98.4451 24.2392C99.1803 23.5229 99.5479 22.4862 99.5479 21.129V20.8463C99.5479 19.4891 99.1803 18.4617 98.4451 17.7643C97.71 17.048 96.7958 16.6898 95.7025 16.6898C94.6092 16.6898 93.695 17.048 92.9598 17.7643C92.2247 18.4617 91.8571 19.4891 91.8571 20.8463V21.129C91.8571 22.4862 92.2247 23.5229 92.9598 24.2392C93.695 24.9367 94.6092 25.2854 95.7025 25.2854ZM104.855 21.0442V20.5918C104.855 19.1215 105.148 17.868 105.732 16.8312C106.316 15.7756 107.089 14.9745 108.05 14.4278C109.031 13.8624 110.096 13.5796 111.245 13.5796C112.527 13.5796 113.498 13.8058 114.158 14.2582C114.818 14.7106 115.298 15.1818 115.6 15.6719H116.109V13.9755H119.615V30.488C119.615 31.4493 119.332 32.2128 118.767 32.7783C118.201 33.3626 117.447 33.6548 116.505 33.6548H107.117V30.5445H115.26C115.788 30.5445 116.052 30.2618 116.052 29.6963V26.0488H115.543C115.355 26.3504 115.091 26.6615 114.752 26.9819C114.412 27.2835 113.96 27.538 113.394 27.7453C112.829 27.9527 112.113 28.0563 111.245 28.0563C110.096 28.0563 109.031 27.783 108.05 27.2364C107.089 26.6709 106.316 25.8698 105.732 24.833C105.148 23.7774 104.855 22.5145 104.855 21.0442ZM112.263 24.9461C113.357 24.9461 114.271 24.5974 115.006 23.8999C115.741 23.2025 116.109 22.2223 116.109 20.9594V20.6766C116.109 19.3948 115.741 18.4146 115.006 17.736C114.29 17.0386 113.376 16.6898 112.263 16.6898C111.17 16.6898 110.256 17.0386 109.521 17.736C108.786 18.4146 108.418 19.3948 108.418 20.6766V20.9594C108.418 22.2223 108.786 23.2025 109.521 23.8999C110.256 24.5974 111.17 24.9461 112.263 24.9461ZM122.716 27.9998V13.9755H126.223V15.5588H126.731C126.939 14.9933 127.278 14.5786 127.749 14.3147C128.239 14.0509 128.805 13.9189 129.446 13.9189H131.142V17.0857H129.389C128.485 17.0857 127.74 17.3307 127.156 17.8208C126.571 18.2921 126.279 19.0272 126.279 20.0263V27.9998H122.716ZM137.102 28.3956C136.103 28.3956 135.207 28.226 134.416 27.8867C133.624 27.5286 132.992 27.0196 132.521 26.3599C132.069 25.6813 131.843 24.8613 131.843 23.8999C131.843 22.9386 132.069 22.1375 132.521 21.4966C132.992 20.8368 133.633 20.3467 134.444 20.0263C135.273 19.687 136.216 19.5173 137.271 19.5173H141.117V18.7256C141.117 18.0659 140.909 17.5287 140.495 17.114C140.08 16.6804 139.42 16.4636 138.515 16.4636C137.63 16.4636 136.97 16.671 136.536 17.0857C136.103 17.4815 135.82 17.9999 135.688 18.6408L132.408 17.5381C132.634 16.8218 132.992 16.1715 133.483 15.5871C133.992 14.9839 134.661 14.5032 135.49 14.1451C136.338 13.7681 137.366 13.5796 138.572 13.5796C140.419 13.5796 141.88 14.0414 142.955 14.9651C144.029 15.8887 144.566 17.2271 144.566 18.9801V24.211C144.566 24.7765 144.83 25.0592 145.358 25.0592H146.489V27.9998H144.114C143.416 27.9998 142.842 27.8302 142.389 27.4909C141.937 27.1516 141.711 26.6992 141.711 26.1337V26.1054H141.173C141.098 26.3316 140.928 26.6332 140.664 27.0102C140.4 27.3683 139.986 27.6888 139.42 27.9715C138.855 28.2543 138.082 28.3956 137.102 28.3956ZM137.724 25.5116C138.723 25.5116 139.533 25.2383 140.155 24.6916C140.796 24.1261 141.117 23.3816 141.117 22.4579V22.1752H137.526C136.866 22.1752 136.348 22.3165 135.971 22.5993C135.594 22.882 135.405 23.2779 135.405 23.7868C135.405 24.2958 135.603 24.7105 135.999 25.0309C136.395 25.3514 136.97 25.5116 137.724 25.5116ZM148.246 27.9998V13.9755H151.752V15.5023H152.261C152.506 15.031 152.911 14.6258 153.476 14.2865C154.042 13.9283 154.787 13.7493 155.71 13.7493C156.709 13.7493 157.51 13.9472 158.114 14.343C158.717 14.72 159.179 15.2195 159.499 15.8416H160.008C160.328 15.2384 160.781 14.7389 161.365 14.343C161.949 13.9472 162.779 13.7493 163.853 13.7493C164.72 13.7493 165.503 13.9378 166.2 14.3147C166.916 14.6729 167.482 15.229 167.897 15.983C168.33 16.7181 168.547 17.6512 168.547 18.7822V27.9998H164.984V19.0367C164.984 18.2638 164.786 17.6889 164.391 17.3119C163.995 16.916 163.439 16.7181 162.722 16.7181C161.912 16.7181 161.28 16.982 160.828 17.5098C160.394 18.0188 160.178 18.7539 160.178 19.7153V27.9998H156.615V19.0367C156.615 18.2638 156.417 17.6889 156.021 17.3119C155.625 16.916 155.069 16.7181 154.353 16.7181C153.542 16.7181 152.911 16.982 152.459 17.5098C152.025 18.0188 151.808 18.7539 151.808 19.7153V27.9998H148.246Z" fill="black"/>
</g>
<defs>
<linearGradient id="paint0_linear_1_12" x1="15" y1="3" x2="15" y2="33" gradientUnits="userSpaceOnUse">
<stop stop-color="#877EFF"/>
<stop offset="0.461458" stop-color="#685DFF"/>
<stop offset="1" stop-color="#3121FF"/>
</linearGradient>
<clipPath id="clip0_1_12">
<rect width="171" height="36" fill="white"/>
</clipPath>
</defs>
</svg>
