<svg version="1.1" xmlns="http://www.w3.org/2000/svg" xmlns:xlink="http://www.w3.org/1999/xlink" width="20" height="20" viewBox="0,0,256,256"><defs><clipPath id="clip-1"><rect x="0" y="0" width="20" height="20" id="clip0_1607_406" stroke="none" stroke-width="1" stroke-linecap="butt"></rect></clipPath></defs><g fill="none" fill-rule="nonzero" stroke="none" stroke-width="none" stroke-linecap="none" stroke-linejoin="miter" stroke-miterlimit="10" stroke-dasharray="" stroke-dashoffset="0" font-family="none" font-weight="none" font-size="none" text-anchor="none" style="mix-blend-mode: normal"><g transform="scale(12.8,12.8)"><g clip-path="url(#clip-1)"><path d="M1.66675,9.99984c0,-3.92837 0,-5.89256 1.22039,-7.11295c1.22038,-1.22039 3.18457,-1.22039 7.11296,-1.22039c3.9284,0 5.8925,0 7.1129,1.22039c1.2204,1.22039 1.2204,3.18458 1.2204,7.11295c0,3.92836 0,5.89256 -1.2204,7.11296c-1.2204,1.2204 -3.1845,1.2204 -7.1129,1.2204c-3.92839,0 -5.89258,0 -7.11296,-1.2204c-1.22039,-1.2204 -1.22039,-3.1846 -1.22039,-7.11296z" stroke="#ffffff" stroke-width="1.5" stroke-linecap="butt"></path><circle cx="13.3334" cy="6.66667" r="1.66667" stroke="#ffffff" stroke-width="1.5" stroke-linecap="butt"></circle><path d="M1.66675,10.4169l1.45965,-1.27714c0.7594,-0.66447 1.90391,-0.62636 2.61742,0.08715l3.57477,3.57479c0.57269,0.5727 1.47421,0.6508 2.13681,0.1851l0.2485,-0.1747c0.9535,-0.6701 2.2436,-0.5925 3.1099,0.1872l2.6863,2.4176" stroke="#ffffff" stroke-width="1.5" stroke-linecap="round"></path></g></g></g></svg>